<svg width="78" height="124" viewBox="0 0 78 124" fill="none" xmlns="http://www.w3.org/2000/svg">
<path d="M48.0558 67.1664C47.9138 67.0698 47.7976 66.94 47.7172 66.7883C47.6369 66.6365 47.5949 66.4674 47.5949 66.2957C47.5949 66.124 47.6369 65.9549 47.7172 65.8031C47.7976 65.6514 47.9138 65.5216 48.0558 65.425C52.7804 62.0908 57.046 59.2561 60.4477 55.3414C70.3018 44.1779 71.9622 25.86 64.0519 14.3591C54.9537 1.19773 36.6898 -3.68884 21.2337 2.95257C7.2354 8.95954 4.76564e-05 23.4573 2.69981 39.3048C4.53564 50.1039 10.9881 57.6497 19.0469 64.0751C23.7078 67.6416 28.5612 70.9493 33.5851 73.9833C51.2955 85.1198 70.0318 95.4194 71.3817 120.662C71.3936 120.892 71.4814 121.111 71.6314 121.286C71.7814 121.461 71.9851 121.58 72.2105 121.627C72.436 121.673 72.6704 121.643 72.8771 121.542C73.0838 121.441 73.251 121.274 73.3525 121.067C82.1537 103.343 76.4977 84.7823 48.0558 67.1664ZM14.3088 35.5387C11.0151 22.2694 17.94 8.75706 29.6974 5.80082C42.0758 2.6961 52.9558 10.8764 55.8041 25.5226C58.8143 40.9517 53.2933 53.7351 39.6055 61.9693C39.4402 62.068 39.2513 62.1201 39.0588 62.1201C38.8663 62.1201 38.6774 62.068 38.5121 61.9693C28.2665 55.4359 17.7645 48.9565 14.3763 35.5387H14.3088Z" fill="url(#paint0_linear_1_22)"/>
<path d="M5.80448 123.389C9.01021 123.389 11.609 120.79 11.609 117.584C11.609 114.379 9.01021 111.78 5.80448 111.78C2.59876 111.78 0 114.379 0 117.584C0 120.79 2.59876 123.389 5.80448 123.389Z" fill="url(#paint1_linear_1_22)"/>
<defs>
<linearGradient id="paint0_linear_1_22" x1="-4.66439" y1="5.91534" x2="84.3852" y2="121.054" gradientUnits="userSpaceOnUse">
<stop stop-color="#E7C382"/>
<stop offset="1" stop-color="#957950"/>
</linearGradient>
<linearGradient id="paint1_linear_1_22" x1="-1.05314" y1="112.344" x2="5.77027" y2="126.65" gradientUnits="userSpaceOnUse">
<stop stop-color="#E7C382"/>
<stop offset="1" stop-color="#957950"/>
</linearGradient>
</defs>
</svg>
